<?xml version="1.0" encoding="UTF-8"?> <svg xmlns="http://www.w3.org/2000/svg" xmlns:xlink="http://www.w3.org/1999/xlink" width="595.5pt" height="842.249979pt" viewBox="0 0 595.5 842.249979"> <defs> <clipPath id="clip1"> <path d="M 191 431 L 404 431 L 404 497.574219 L 191 497.574219 Z M 191 431 "></path> </clipPath> <clipPath id="clip2"> <path d="M 178.589844 354 L 259 354 L 259 488 L 178.589844 488 Z M 178.589844 354 "></path> </clipPath> <clipPath id="clip3"> <path d="M 191 344.582031 L 404 344.582031 L 404 435 L 191 435 Z M 191 344.582031 "></path> </clipPath> <clipPath id="clip4"> <path d="M 336 354 L 415.976562 354 L 415.976562 488 L 336 488 Z M 336 354 "></path> </clipPath> </defs> <g id="surface1"> <g clip-path="url(#clip1)" clip-rule="nonzero"> <path style=" stroke:none;fill-rule:nonzero;fill:rgb(100%,100%,100%);fill-opacity:1;" d="M 402.875 495.105469 L 328.375 432.804688 C 326.195312 430.988281 323.039062 430.988281 320.863281 432.804688 L 300.792969 449.589844 C 298.769531 451.277344 295.84375 451.277344 293.824219 449.589844 L 273.753906 432.804688 C 271.578125 430.988281 268.417969 430.988281 266.238281 432.804688 L 191.738281 495.105469 C 190.714844 495.964844 191.316406 497.640625 192.652344 497.640625 L 401.964844 497.640625 C 403.296875 497.640625 403.898438 495.964844 402.875 495.105469 "></path> </g> <g clip-path="url(#clip2)" clip-rule="nonzero"> <path style=" stroke:none;fill-rule:nonzero;fill:rgb(100%,100%,100%);fill-opacity:1;" d="M 256.933594 418.742188 L 180.953125 355.203125 C 180.027344 354.429688 178.621094 355.09375 178.621094 356.308594 L 178.621094 486.152344 C 178.621094 487.367188 180.027344 488.03125 180.953125 487.257812 L 256.933594 423.722656 C 258.480469 422.425781 258.480469 420.035156 256.933594 418.742188 "></path> </g> <g clip-path="url(#clip3)" clip-rule="nonzero"> <path style=" stroke:none;fill-rule:nonzero;fill:rgb(100%,100%,100%);fill-opacity:1;" d="M 191.742188 347.355469 L 294.457031 433.25 C 296.109375 434.632812 298.507812 434.632812 300.15625 433.25 L 402.875 347.355469 C 403.898438 346.5 403.296875 344.820312 401.964844 344.820312 L 192.652344 344.820312 C 191.316406 344.820312 190.714844 346.5 191.742188 347.355469 "></path> </g> <g clip-path="url(#clip4)" clip-rule="nonzero"> <path style=" stroke:none;fill-rule:nonzero;fill:rgb(100%,100%,100%);fill-opacity:1;" d="M 413.664062 355.203125 L 337.683594 418.742188 C 336.132812 420.035156 336.132812 422.425781 337.683594 423.722656 L 413.664062 487.257812 C 414.589844 488.03125 415.992188 487.371094 415.992188 486.15625 L 415.992188 356.308594 C 415.992188 355.09375 414.589844 354.429688 413.664062 355.203125 "></path> </g> </g> </svg> 