<?xml version="1.0" encoding="UTF-8"?> <svg xmlns="http://www.w3.org/2000/svg" xmlns:xlink="http://www.w3.org/1999/xlink" width="595.5pt" height="842.249979pt" viewBox="0 0 595.5 842.249979"> <g id="surface1"> <path style=" stroke:none;fill-rule:nonzero;fill:rgb(100%,100%,100%);fill-opacity:1;" d="M 393.898438 402.6875 L 405.113281 402.6875 C 405.113281 353.144531 364.945312 312.976562 315.398438 312.976562 L 315.398438 324.191406 C 358.675781 324.191406 393.898438 359.402344 393.898438 402.6875 Z M 393.898438 402.6875 "></path> <path style=" stroke:none;fill-rule:nonzero;fill:rgb(100%,100%,100%);fill-opacity:1;" d="M 315.398438 346.617188 L 315.398438 357.832031 C 340.128906 357.832031 360.257812 377.960938 360.257812 402.6875 L 371.46875 402.6875 C 371.46875 371.773438 346.316406 346.617188 315.398438 346.617188 Z M 315.398438 346.617188 "></path> <path style=" stroke:none;fill-rule:nonzero;fill:rgb(100%,100%,100%);fill-opacity:1;" d="M 315.398438 380.261719 L 315.398438 391.476562 C 321.578125 391.476562 326.613281 396.511719 326.613281 402.6875 L 337.828125 402.6875 C 337.828125 390.320312 327.78125 380.261719 315.398438 380.261719 Z M 315.398438 380.261719 "></path> <path style=" stroke:none;fill-rule:nonzero;fill:rgb(100%,100%,100%);fill-opacity:1;" d="M 265.710938 452.378906 C 265.710938 452.378906 352.933594 539.589844 384.648438 507.875 C 393.945312 498.582031 384.636719 507.886719 400.503906 492.019531 C 408.433594 484.089844 416.359375 476.164062 408.433594 468.234375 C 404.316406 464.121094 384.65625 444.449219 376.71875 436.511719 C 368.789062 428.582031 360.863281 436.511719 352.933594 444.4375 C 345.003906 452.378906 345.003906 452.378906 345.003906 452.378906 C 345.003906 452.378906 321.210938 460.304688 289.496094 428.582031 C 257.769531 396.867188 265.710938 373.074219 265.710938 373.074219 C 265.710938 373.074219 265.710938 373.074219 273.640625 365.15625 C 281.566406 357.226562 289.496094 349.296875 281.566406 341.359375 C 273.628906 333.429688 253.96875 313.761719 249.84375 309.644531 C 241.914062 301.71875 233.984375 309.644531 226.058594 317.585938 C 210.199219 333.441406 219.507812 324.132812 210.199219 333.429688 C 178.488281 365.15625 265.710938 452.378906 265.710938 452.378906 Z M 265.710938 452.378906 "></path> </g> </svg> 